<svg width="40" height="40" viewBox="0 0 40 40" fill="none" xmlns="http://www.w3.org/2000/svg">
<path fill-rule="evenodd" clip-rule="evenodd" d="M40 0H0V40H40V0ZM24.2857 33.2685L27.2307 31.3196C27.4615 32.0448 28.9231 33.7669 30.7693 33.7669C32.6154 33.7669 33.4725 32.7586 33.4725 32.0901C33.4725 30.2683 31.5874 29.6261 30.682 29.3176C30.5343 29.2673 30.4128 29.2259 30.3297 29.1898C30.287 29.1712 30.2225 29.1465 30.1398 29.1149C29.1328 28.7302 25.4175 27.3108 25.4175 23.1962C25.4175 18.6643 29.7911 18.1432 30.7803 18.1432C31.4273 18.1432 34.5384 18.2225 36.0878 21.1342L33.2307 23.1283C32.6044 21.8593 31.5637 21.4402 30.9231 21.4402C29.3407 21.4402 29.011 22.6002 29.011 23.1283C29.011 24.6101 30.7303 25.2742 32.1818 25.8349L32.1828 25.8353L32.1829 25.8353C32.5623 25.9819 32.9234 26.1213 33.2307 26.2666C34.8131 27.0143 37.1428 28.2381 37.1428 32.0901C37.1428 34.0195 35.5245 37.1432 31.4505 37.1432C25.978 37.1432 24.5274 33.8576 24.2857 33.2685ZM13.0696 31.7077L10 33.6554C10.2749 34.72 11.97 37.1433 16.0474 37.1433C20.4823 37.1433 21.4871 33.5196 21.426 31.7077V18.5719H17.651V31.7077C17.651 32.3759 16.9569 33.7687 15.6007 33.7687C14.2447 33.7687 13.31 32.4324 13.0696 31.7077Z" fill="#FFFAFA"/>
</svg>
