<svg width="40" height="40" viewBox="0 0 40 40" fill="none" xmlns="http://www.w3.org/2000/svg">
<path d="M29.6881 37.5029C29.5398 37.5813 29.5481 37.6129 29.6965 37.5379C29.7399 37.5193 29.7795 37.4927 29.8131 37.4596C29.8131 37.4329 29.8098 37.4363 29.6881 37.5029ZM29.9848 37.3463C29.9148 37.4013 29.9148 37.4046 29.9998 37.3613C30.0465 37.3379 30.0865 37.3113 30.0865 37.3029C30.0865 37.2713 30.0665 37.2796 29.9848 37.3463ZM30.1798 37.2279C30.1098 37.2829 30.1098 37.2863 30.1948 37.2429C30.2415 37.2196 30.2815 37.1929 30.2815 37.1846C30.2815 37.1529 30.2615 37.1613 30.1798 37.2279ZM30.3748 37.1113C30.3048 37.1663 30.3048 37.1696 30.3898 37.1263C30.4365 37.1029 30.4765 37.0763 30.4765 37.0679C30.4765 37.0363 30.4565 37.0446 30.3748 37.1113ZM30.6448 36.9363C30.5081 37.0229 30.4648 37.0813 30.5865 37.0146C30.6731 36.9646 30.8131 36.8579 30.7898 36.8546C30.7387 36.8766 30.6901 36.9039 30.6448 36.9363ZM18.6898 0.00960904C18.6031 0.0179424 18.3298 0.044609 18.0831 0.064609C12.4031 0.576276 7.08146 3.64128 3.71146 8.35294C1.8484 10.939 0.637409 13.9368 0.181465 17.0913C0.0214648 18.1896 0.00146484 18.5146 0.00146484 20.0046C0.00146484 21.4946 0.0214648 21.8179 0.181465 22.9179C1.26813 30.4279 6.61313 36.7379 13.8615 39.0763C15.1598 39.4946 16.5281 39.7796 18.0831 39.9513C18.6898 40.0179 21.3081 40.0179 21.9148 39.9513C24.5998 39.6546 26.8765 38.9896 29.1198 37.8446C29.4631 37.6679 29.5298 37.6213 29.4831 37.5829C28.3873 36.1351 27.3017 34.6795 26.2265 33.2163L23.0281 28.8963L19.0215 22.9663C17.6893 20.982 16.3442 19.0064 14.9865 17.0396C14.9715 17.0363 14.9548 19.6713 14.9481 22.8879C14.9365 28.5213 14.9331 28.7479 14.8615 28.8813C14.7934 29.037 14.6715 29.1631 14.5181 29.2363C14.3931 29.2996 14.2831 29.3113 13.6931 29.3113H13.0165L12.8365 29.1979C12.7254 29.128 12.6351 29.0296 12.5748 28.9129L12.4931 28.7363L12.5015 20.8979L12.5131 13.0563L12.6348 12.9046C12.7165 12.8086 12.8147 12.7279 12.9248 12.6663C13.0848 12.5879 13.1481 12.5796 13.8248 12.5796C14.6231 12.5796 14.7548 12.6113 14.9631 12.8379C16.585 15.2517 18.1934 17.6745 19.7881 20.1063C22.3848 24.0429 25.9331 29.4179 27.6781 32.0579L30.8448 36.8546L31.0048 36.7496C32.5285 35.7361 33.9102 34.5237 35.1131 33.1446C37.6331 30.2607 39.2673 26.711 39.8198 22.9213C39.9798 21.8229 39.9998 21.4979 39.9998 20.0079C39.9998 18.5179 39.9798 18.1946 39.8198 17.0946C38.7331 9.58461 33.3881 3.27461 26.1398 0.936276C24.7852 0.505022 23.3903 0.212957 21.9765 0.064609C21.6015 0.0262757 19.0165 -0.0170576 18.6931 0.014609L18.6898 0.00960904ZM26.8765 12.1063C26.9697 12.1531 27.0526 12.2181 27.1204 12.2973C27.1883 12.3766 27.2396 12.4686 27.2715 12.5679C27.3031 12.6696 27.3098 14.8429 27.3031 19.7413L27.2915 26.7713L26.0515 24.8713L24.8081 22.9713V17.8613C24.8081 14.5579 24.8231 12.7013 24.8465 12.6113C24.8747 12.5074 24.9235 12.4102 24.9899 12.3255C25.0563 12.2408 25.139 12.1702 25.2331 12.1179C25.3931 12.0363 25.4515 12.0279 26.0665 12.0279C26.6448 12.0279 26.7465 12.0363 26.8765 12.1063Z" fill="white"/>
</svg>
