<svg width="40" height="42" viewBox="0 0 40 42" fill="none" xmlns="http://www.w3.org/2000/svg">
<path d="M18.9271 0.250125C19.2324 0.073097 19.5527 0.0134263 19.8928 0H20.1076C20.4503 0.0139236 20.7715 0.073097 21.0733 0.250125L38.9269 10.5546C39.2546 10.7417 39.5267 11.0125 39.7153 11.3394C39.9038 11.6663 40.0021 12.0375 40 12.4149L39.9652 40.0721C39.965 40.2606 39.9153 40.4458 39.821 40.6091C39.7268 40.7724 39.5913 40.908 39.4281 41.0025C39.266 41.0999 39.0804 41.1513 38.8913 41.1513C38.7022 41.1513 38.5166 41.0999 38.3545 41.0025L27.7641 34.9198C27.0978 34.526 26.6552 33.8278 26.6552 33.0591V20.1434C26.6565 19.7661 26.5579 19.3951 26.3693 19.0683C26.1807 18.7414 25.909 18.4704 25.5816 18.2826L21.0733 15.671C20.7461 15.4766 20.3682 15.3846 20.0002 15.3846C19.6232 15.3826 19.2526 15.4815 18.9266 15.671L14.4189 18.2826C13.7505 18.6655 13.3453 19.3727 13.3453 20.1434V33.0595C13.3453 33.8283 12.9072 34.5215 12.2363 34.9203L1.64597 41.0025C1.48386 41.0999 1.2983 41.1513 1.10917 41.1513C0.920045 41.1513 0.734482 41.0999 0.572367 41.0025C0.234223 40.8145 0.0358125 40.4569 0.0358125 40.0726L8.99834e-06 12.4149C-0.00108508 12.0377 0.0976074 11.6669 0.286073 11.3402C0.474538 11.0135 0.74607 10.7425 1.07312 10.5546L18.9271 0.250125Z" fill="white"/>
</svg>
