<svg width="40" height="40" viewBox="0 0 40 40" fill="none" xmlns="http://www.w3.org/2000/svg">
<path d="M23.3486 19.9699C23.3486 18.1769 21.8495 16.7231 20 16.7231C18.1507 16.7231 16.6514 18.1769 16.6514 19.9699C16.6514 21.7631 18.1507 23.2168 20 23.2168C21.8495 23.2168 23.3486 21.7631 23.3486 19.9699Z" fill="white"/>
<path fill-rule="evenodd" clip-rule="evenodd" d="M30.8755 13.9421C31.5826 11.156 32.4715 5.98935 29.338 4.2377C26.2191 2.49369 22.1605 5.83554 20.0174 7.84147C17.8805 5.85552 13.7079 2.52796 10.577 4.28517C7.45939 6.03504 8.4208 11.116 9.14362 13.9196C6.23539 14.7205 1.25 16.4455 1.25 19.9699C1.25 23.4842 6.2302 25.361 9.12122 26.1611C8.39572 28.9802 7.48245 33.9886 10.6041 35.7346C13.7466 37.4915 17.9063 34.2431 20.0693 32.2152C22.2261 34.233 26.2458 37.5026 29.3653 35.7517C32.4945 33.9954 31.6795 28.898 30.9566 26.0781C33.7591 25.2762 38.75 23.4404 38.75 19.9699C38.75 16.4794 33.7379 14.7404 30.8755 13.9421ZM30.5203 24.5837C30.0456 23.127 29.405 21.5779 28.6214 19.9776C29.3694 18.4151 29.9851 16.886 30.4465 15.4386C32.5449 16.0285 37.1481 17.3766 37.1481 19.9699C37.1481 22.5875 32.7308 23.9484 30.5203 24.5837ZM28.5625 34.4075C26.235 35.7137 22.7776 32.587 21.1847 31.1011C22.2415 29.9805 23.2975 28.6777 24.3281 27.2311C26.1411 27.0752 27.8538 26.8202 29.407 26.4721C29.9158 28.4667 30.9002 33.0954 28.5625 34.4075ZM11.4045 34.3889C9.07679 33.0875 10.1407 28.6182 10.6745 26.5416C12.2104 26.8711 13.9108 27.1081 15.728 27.251C16.7654 28.6665 17.852 29.9676 18.947 31.1071C17.5941 32.376 13.7431 35.6962 11.4045 34.3889ZM2.85186 19.9699C2.85186 17.3425 7.42759 16.0041 9.5738 15.4157C10.0431 16.8956 10.6587 18.443 11.4015 20.0077C10.6491 21.5957 10.0247 23.1676 9.55106 24.665C7.50461 24.097 2.85186 22.5989 2.85186 19.9699ZM11.3796 5.62942C13.7169 4.3177 17.3434 7.51229 18.8949 8.95016C17.8055 10.0844 16.7289 11.3757 15.7004 12.7831C13.9367 12.9416 12.2484 13.1961 10.6964 13.5371C10.1141 11.2759 9.0449 6.93974 11.3796 5.62942ZM25.4741 14.4714C26.6706 14.6177 27.817 14.8125 28.8934 15.0507C28.5703 16.055 28.1675 17.1051 27.6931 18.1816C27.0055 16.9166 26.2674 15.677 25.4741 14.4714ZM20.0179 10.0601C20.7567 10.8362 21.4968 11.7029 22.2248 12.6431C20.7481 12.5754 19.2691 12.5751 17.7925 12.6421C18.5211 11.7106 19.2675 10.8452 20.0179 10.0601ZM12.3206 18.1805C11.8541 17.1077 11.455 16.053 11.129 15.0344C12.199 14.8022 13.34 14.6125 14.5288 14.4685C13.7333 15.6715 12.9964 16.9106 12.3206 18.1805ZM14.5629 25.5821C13.3349 25.4492 12.1766 25.2691 11.1069 25.0434C11.438 24.0069 11.846 22.9294 12.3224 21.8335C13.0075 23.1166 13.7556 24.3677 14.5629 25.5821ZM20.0623 29.9894C19.303 29.195 18.5456 28.3164 17.806 27.3714C19.291 27.4279 20.7789 27.428 22.2638 27.3637C21.5335 28.326 20.7961 29.2059 20.0623 29.9894ZM27.7084 21.7777C28.2096 22.8855 28.6321 23.9571 28.9678 24.9761C27.8804 25.2167 26.7065 25.4105 25.4696 25.5544C26.2688 24.3259 27.0186 23.067 27.7084 21.7777ZM23.4341 25.7426C21.1626 25.9 18.877 25.8982 16.6047 25.7555C15.3136 23.9269 14.1642 22.0037 13.1721 20.0072C14.1595 18.0149 15.3005 16.0955 16.5855 14.2697C18.8594 14.1031 21.1473 14.1026 23.4211 14.2707C24.6951 16.0964 25.8344 18.0107 26.8446 19.9851C25.8464 21.9765 24.6994 23.8997 23.4341 25.7426ZM28.5379 5.58325C30.8757 6.89067 29.8351 11.5341 29.3244 13.5532C27.7686 13.2051 26.0791 12.9461 24.3104 12.7851C23.2799 11.3625 22.2122 10.069 21.1405 8.94936C22.7119 7.48051 26.2226 4.28861 28.5379 5.58325Z" fill="white"/>
</svg>
