<svg width="40" height="40" viewBox="0 0 40 40" fill="none" xmlns="http://www.w3.org/2000/svg">
<path fill-rule="evenodd" clip-rule="evenodd" d="M0 0H40V40H0V0ZM25.1971 35.7367V31.9789C25.8534 32.534 26.604 32.9675 27.4134 33.2589C28.1881 33.541 29.0062 33.686 29.831 33.6875C30.2512 33.6936 30.6708 33.6504 31.0809 33.5589C31.3958 33.4896 31.697 33.3687 31.9724 33.2013C32.1924 33.068 32.3759 32.8825 32.5065 32.6612C32.624 32.4552 32.685 32.222 32.6833 31.9851C32.6866 31.6689 32.5875 31.36 32.4009 31.1044C32.1886 30.8226 31.9285 30.5801 31.6322 30.3879C31.265 30.1451 30.8781 29.9333 30.4756 29.7547C30.0295 29.5514 29.5486 29.3436 29.0329 29.1313C27.9027 28.7122 26.893 28.0229 26.0922 27.1238C25.4395 26.3129 25.0962 25.2973 25.1234 24.2577C25.102 23.4716 25.2842 22.6933 25.6526 21.998C26.0002 21.3719 26.4933 20.838 27.0904 20.4412C27.7332 20.0186 28.4469 19.7145 29.1974 19.5434C30.0278 19.3477 30.8785 19.251 31.7317 19.2556C32.5122 19.2487 33.2922 19.3015 34.0646 19.4136C34.7043 19.5109 35.3319 19.6751 35.9371 19.9035V23.4102C35.6464 23.2098 35.3377 23.0368 35.015 22.8933C34.6824 22.7457 34.3393 22.6228 33.9885 22.5259C33.6436 22.4294 33.2924 22.3569 32.9374 22.3091C32.6088 22.2629 32.2773 22.2392 31.9453 22.238C31.5507 22.234 31.1568 22.2751 30.7715 22.3605C30.4577 22.4277 30.1567 22.5447 29.8801 22.7071C29.6538 22.8399 29.461 23.0226 29.3165 23.2411C29.1835 23.45 29.1143 23.6931 29.1176 23.9405C29.1137 24.2094 29.1911 24.4732 29.3399 24.6974C29.512 24.9444 29.7265 25.1592 29.9734 25.3319C30.2887 25.5556 30.6227 25.7519 30.9717 25.9186C31.3646 26.1105 31.8066 26.3081 32.2977 26.5114C32.9222 26.7693 33.5281 27.0697 34.1113 27.4104C34.6178 27.7041 35.0817 28.0655 35.4901 28.4846C35.8706 28.8786 36.1698 29.3435 36.3705 29.8527C36.8463 31.2143 36.7642 32.7081 36.1421 34.0097C35.7948 34.6382 35.2966 35.171 34.692 35.5603C34.0409 35.9744 33.3187 36.2651 32.5617 36.4176C31.7186 36.5935 30.8593 36.6802 29.998 36.6761C29.1142 36.6797 28.2321 36.601 27.363 36.4409C26.611 36.3108 25.8815 36.0736 25.1971 35.7367ZM23.7802 22.6238H18.8688V36.4078H14.9753V22.6238H10.086V19.5288H23.7802V22.6238Z" fill="#FFFAFA"/>
</svg>
