<svg  width="current" height="current" viewBox="0 0 49 48" fill="none" xmlns="http://www.w3.org/2000/svg">
<path fill-rule="evenodd" clip-rule="evenodd" d="M24.5 0C10.969 0 0 10.7452 0 24C0 37.2548 10.969 48 24.5 48C38.031 48 49 37.2548 49 24C49 10.7452 38.031 0 24.5 0ZM19.1134 11.2773C20.5072 11.2152 20.9525 11.2 24.5012 11.2H24.4972C28.047 11.2 28.4907 11.2152 29.8845 11.2773C31.2756 11.3397 32.2256 11.5554 33.0586 11.872C33.9189 12.1986 34.6457 12.636 35.3725 13.348C36.0994 14.0594 36.5458 14.7736 36.8807 15.6155C37.2019 16.4293 37.4224 17.3595 37.4877 18.7222C37.5503 20.0875 37.5667 20.5238 37.5667 24.0001C37.5667 27.4764 37.5503 27.9116 37.4877 29.2769C37.4224 30.6391 37.2019 31.5695 36.8807 32.3836C36.5458 33.2252 36.0994 33.9394 35.3725 34.6509C34.6465 35.3629 33.9186 35.8013 33.0594 36.1282C32.2281 36.4447 31.2775 36.6605 29.8864 36.7229C28.4926 36.785 28.0486 36.8002 24.4996 36.8002C20.9512 36.8002 20.5061 36.785 19.1123 36.7229C17.7215 36.6605 16.7717 36.4447 15.9403 36.1282C15.0814 35.8013 14.3524 35.3629 13.6264 34.6509C12.8998 33.9394 12.4534 33.2252 12.1194 32.3834C11.7965 31.5695 11.5763 30.6394 11.5123 29.2767C11.4491 27.9113 11.4333 27.4764 11.4333 24.0001C11.4333 20.5238 11.4497 20.0872 11.512 18.7219C11.5746 17.3597 11.7951 16.4293 12.1191 15.6152C12.4539 14.7736 12.9004 14.0594 13.6272 13.348C14.3535 12.6362 15.0825 12.1989 15.9419 11.872C16.7728 11.5554 17.7223 11.3397 19.1134 11.2773ZM24.0657 13.5065H24.0654H24.064C23.8004 13.5064 23.5561 13.5063 23.329 13.5066V13.5034C20.8937 13.5061 20.4266 13.5221 19.2212 13.5754C17.9472 13.6328 17.2554 13.8408 16.7948 14.0168C16.185 14.2493 15.7495 14.5267 15.2921 14.9747C14.8348 15.4227 14.5511 15.8493 14.3143 16.4467C14.1355 16.8979 13.9226 17.5752 13.8643 18.8232C13.8017 20.1726 13.7892 20.5758 13.7892 23.9939C13.7892 27.4121 13.8017 27.8175 13.8643 29.1668C13.9223 30.4148 14.1355 31.0922 14.3143 31.5428C14.5517 32.1404 14.8348 32.566 15.2921 33.014C15.7495 33.4621 16.185 33.7394 16.7948 33.9714C17.2557 34.1466 17.9472 34.3551 19.2212 34.4127C20.5986 34.4741 21.0121 34.4874 24.5012 34.4874C27.9901 34.4874 28.4039 34.4741 29.7813 34.4127C31.0553 34.3557 31.7473 34.1477 32.2074 33.9717C32.8174 33.7397 33.2516 33.4623 33.709 33.0143C34.1663 32.5666 34.45 32.1412 34.6868 31.5439C34.8657 31.0932 35.0785 30.4159 35.1368 29.1679C35.1994 27.8185 35.213 27.4132 35.213 23.9972C35.213 20.5811 35.1994 20.1758 35.1368 18.8264C35.0788 17.5784 34.8657 16.9011 34.6868 16.4504C34.4494 15.8531 34.1663 15.4264 33.709 14.9784C33.2519 14.5304 32.8172 14.253 32.2074 14.021C31.7468 13.8458 31.0553 13.6373 29.7813 13.5802C28.4036 13.5189 27.9901 13.5066 24.5012 13.5066L24.0657 13.5065ZM31.4762 15.632C30.6105 15.632 29.9082 16.3192 29.9082 17.1675C29.9082 18.0155 30.6105 18.7035 31.4762 18.7035C32.3419 18.7035 33.0442 18.0155 33.0442 17.1675C33.0442 16.3195 32.3419 15.6315 31.4762 15.6315V15.632ZM17.7909 24.0001C17.7909 20.37 20.7953 17.4268 24.501 17.4267C28.2068 17.4267 31.2105 20.3699 31.2105 24.0001C31.2105 27.6303 28.207 30.5722 24.5012 30.5722C20.7954 30.5722 17.7909 27.6303 17.7909 24.0001ZM24.5012 19.7334C26.9066 19.7334 28.8568 21.6435 28.8568 24.0001C28.8568 26.3564 26.9066 28.2668 24.5012 28.2668C22.0956 28.2668 20.1456 26.3564 20.1456 24.0001C20.1456 21.6435 22.0956 19.7334 24.5012 19.7334Z" fill="inherit"/>
</svg>
