<svg width="current" height="current" viewBox="0 0 50 48" fill="none" xmlns="http://www.w3.org/2000/svg">
<path fill-rule="evenodd" clip-rule="evenodd" d="M25 0C11.1929 0 0 10.7452 0 24C0 37.2548 11.1929 48 25 48C38.8071 48 50 37.2548 50 24C50 10.7452 38.8071 0 25 0ZM14.8347 17.6473C16.8101 17.6473 18.0405 16.3918 18.0405 14.8227C18.0037 13.2204 16.8101 12 14.872 12C12.9338 12 11.6667 13.2204 11.6667 14.8227C11.6667 16.3918 12.8964 17.6473 14.7984 17.6473H14.8347ZM17.6673 36.2196V19.8778H12.0018V36.2196H17.6673ZM38.0994 26.8497L38.0992 36.2196H32.4339V27.4767C32.4339 25.2807 31.6141 23.7822 29.5631 23.7822C27.9979 23.7822 27.0656 24.7924 26.6561 25.7681C26.5063 26.1178 26.4695 26.605 26.4695 27.0934V36.22H20.8033C20.8033 36.22 20.878 21.4117 20.8033 19.8783H26.4695V22.1929C27.2215 21.0802 28.5682 19.4941 31.5763 19.4941C35.3045 19.4941 38.0994 21.8303 38.0994 26.8497Z" fill="inherit"/>
</svg>
